# Blender 4.5.2 LTS
# www.blender.org
mtllib NetherPortal.mtl
o Cube
v -1.000000 -1.000000 4.000000
v -1.000000 1.000000 4.000000
v -1.000000 -1.000000 2.000000
v -1.000000 1.000000 2.000000
v 1.000000 -1.000000 4.000000
v 1.000000 1.000000 4.000000
v 1.000000 -1.000000 2.000000
v 1.000000 1.000000 2.000000
vn -1.0000 -0.0000 -0.0000
vn -0.0000 -0.0000 -1.0000
vn 1.0000 -0.0000 -0.0000
vn -0.0000 -0.0000 1.0000
vn -0.0000 -1.0000 -0.0000
vn -0.0000 1.0000 -0.0000
vt 0.000000 0.000000
vt 0.000000 1.000000
vt 1.000000 1.000000
vt 1.000000 0.000000
s 0
f 1/1/1 2/2/1 4/3/1 3/4/1
f 3/1/2 4/2/2 8/3/2 7/4/2
f 7/4/3 8/3/3 6/2/3 5/1/3
f 5/4/4 6/3/4 2/2/4 1/1/4
f 3/2/5 7/3/5 5/4/5 1/1/5
f 8/3/6 4/2/6 2/1/6 6/4/6
o Cube.001
v -1.000000 1.000000 4.000000
v -1.000000 3.000000 4.000000
v -1.000000 1.000000 2.000000
v -1.000000 3.000000 2.000000
v 1.000000 1.000000 4.000000
v 1.000000 3.000000 4.000000
v 1.000000 1.000000 2.000000
v 1.000000 3.000000 2.000000
vn -1.0000 -0.0000 -0.0000
vn -0.0000 -0.0000 -1.0000
vn 1.0000 -0.0000 -0.0000
vn -0.0000 -0.0000 1.0000
vn -0.0000 -1.0000 -0.0000
vn -0.0000 1.0000 -0.0000
vt 0.000000 0.000000
vt 0.000000 1.000000
vt 1.000000 1.000000
vt 1.000000 0.000000
s 0
f 9/5/7 10/6/7 12/7/7 11/8/7
f 11/5/8 12/6/8 16/7/8 15/8/8
f 15/8/9 16/7/9 14/6/9 13/5/9
f 13/8/10 14/7/10 10/6/10 9/5/10
f 11/6/11 15/7/11 13/8/11 9/5/11
f 16/7/12 12/6/12 10/5/12 14/8/12
o Cube.002
v -1.000000 5.000000 4.000000
v -1.000000 7.000000 4.000000
v -1.000000 5.000000 2.000000
v -1.000000 7.000000 2.000000
v 1.000000 5.000000 4.000000
v 1.000000 7.000000 4.000000
v 1.000000 5.000000 2.000000
v 1.000000 7.000000 2.000000
vn -1.0000 -0.0000 -0.0000
vn -0.0000 -0.0000 -1.0000
vn 1.0000 -0.0000 -0.0000
vn -0.0000 -0.0000 1.0000
vn -0.0000 -1.0000 -0.0000
vn -0.0000 1.0000 -0.0000
vt 0.000000 0.000000
vt 0.000000 1.000000
vt 1.000000 1.000000
vt 1.000000 0.000000
s 0
f 17/9/13 18/10/13 20/11/13 19/12/13
f 19/9/14 20/10/14 24/11/14 23/12/14
f 23/12/15 24/11/15 22/10/15 21/9/15
f 21/12/16 22/11/16 18/10/16 17/9/16
f 19/10/17 23/11/17 21/12/17 17/9/17
f 24/11/18 20/10/18 18/9/18 22/12/18
o Cube.003
v -1.000000 3.000000 4.000000
v -1.000000 5.000000 4.000000
v -1.000000 3.000000 2.000000
v -1.000000 5.000000 2.000000
v 1.000000 3.000000 4.000000
v 1.000000 5.000000 4.000000
v 1.000000 3.000000 2.000000
v 1.000000 5.000000 2.000000
vn -1.0000 -0.0000 -0.0000
vn -0.0000 -0.0000 -1.0000
vn 1.0000 -0.0000 -0.0000
vn -0.0000 -0.0000 1.0000
vn -0.0000 -1.0000 -0.0000
vn -0.0000 1.0000 -0.0000
vt 0.000000 0.000000
vt 0.000000 1.000000
vt 1.000000 1.000000
vt 1.000000 0.000000
s 0
f 25/13/19 26/14/19 28/15/19 27/16/19
f 27/13/20 28/14/20 32/15/20 31/16/20
f 31/16/21 32/15/21 30/14/21 29/13/21
f 29/16/22 30/15/22 26/14/22 25/13/22
f 27/14/23 31/15/23 29/16/23 25/13/23
f 32/15/24 28/14/24 26/13/24 30/16/24
o Cube.004
v -1.000000 7.000000 4.000000
v -1.000000 9.000000 4.000000
v -1.000000 7.000000 2.000000
v -1.000000 9.000000 2.000000
v 1.000000 7.000000 4.000000
v 1.000000 9.000000 4.000000
v 1.000000 7.000000 2.000000
v 1.000000 9.000000 2.000000
vn -1.0000 -0.0000 -0.0000
vn -0.0000 -0.0000 -1.0000
vn 1.0000 -0.0000 -0.0000
vn -0.0000 -0.0000 1.0000
vn -0.0000 -1.0000 -0.0000
vn -0.0000 1.0000 -0.0000
vt 0.000000 0.000000
vt 0.000000 1.000000
vt 1.000000 1.000000
vt 1.000000 0.000000
s 0
f 33/17/25 34/18/25 36/19/25 35/20/25
f 35/17/26 36/18/26 40/19/26 39/20/26
f 39/20/27 40/19/27 38/18/27 37/17/27
f 37/20/28 38/19/28 34/18/28 33/17/28
f 35/18/29 39/19/29 37/20/29 33/17/29
f 40/19/30 36/18/30 34/17/30 38/20/30
o Cube.005
v -1.000000 7.000000 2.000000
v -1.000000 9.000000 2.000000
v -1.000000 7.000000 0.000000
v -1.000000 9.000000 0.000000
v 1.000000 7.000000 2.000000
v 1.000000 9.000000 2.000000
v 1.000000 7.000000 0.000000
v 1.000000 9.000000 0.000000
vn -1.0000 -0.0000 -0.0000
vn -0.0000 -0.0000 -1.0000
vn 1.0000 -0.0000 -0.0000
vn -0.0000 -0.0000 1.0000
vn -0.0000 -1.0000 -0.0000
vn -0.0000 1.0000 -0.0000
vt 0.000000 0.000000
vt 0.000000 1.000000
vt 1.000000 1.000000
vt 1.000000 0.000000
s 0
f 41/21/31 42/22/31 44/23/31 43/24/31
f 43/21/32 44/22/32 48/23/32 47/24/32
f 47/24/33 48/23/33 46/22/33 45/21/33
f 45/24/34 46/23/34 42/22/34 41/21/34
f 43/22/35 47/23/35 45/24/35 41/21/35
f 48/23/36 44/22/36 42/21/36 46/24/36
o Cube.006
v -1.000000 -1.000000 2.000000
v -1.000000 1.000000 2.000000
v -1.000000 -1.000000 0.000000
v -1.000000 1.000000 0.000000
v 1.000000 -1.000000 2.000000
v 1.000000 1.000000 2.000000
v 1.000000 -1.000000 0.000000
v 1.000000 1.000000 0.000000
vn -1.0000 -0.0000 -0.0000
vn -0.0000 -0.0000 -1.0000
vn 1.0000 -0.0000 -0.0000
vn -0.0000 -0.0000 1.0000
vn -0.0000 -1.0000 -0.0000
vn -0.0000 1.0000 -0.0000
vt 0.000000 0.000000
vt 0.000000 1.000000
vt 1.000000 1.000000
vt 1.000000 0.000000
s 0
f 49/25/37 50/26/37 52/27/37 51/28/37
f 51/25/38 52/26/38 56/27/38 55/28/38
f 55/28/39 56/27/39 54/26/39 53/25/39
f 53/28/40 54/27/40 50/26/40 49/25/40
f 51/26/41 55/27/41 53/28/41 49/25/41
f 56/27/42 52/26/42 50/25/42 54/28/42
o Cube.007
v -1.000000 -1.000000 0.000000
v -1.000000 1.000000 0.000000
v -1.000000 -1.000000 -2.000000
v -1.000000 1.000000 -2.000000
v 1.000000 -1.000000 0.000000
v 1.000000 1.000000 0.000000
v 1.000000 -1.000000 -2.000000
v 1.000000 1.000000 -2.000000
vn -1.0000 -0.0000 -0.0000
vn -0.0000 -0.0000 -1.0000
vn 1.0000 -0.0000 -0.0000
vn -0.0000 -0.0000 1.0000
vn -0.0000 -1.0000 -0.0000
vn -0.0000 1.0000 -0.0000
vt 0.000000 0.000000
vt 0.000000 1.000000
vt 1.000000 1.000000
vt 1.000000 0.000000
s 0
f 57/29/43 58/30/43 60/31/43 59/32/43
f 59/29/44 60/30/44 64/31/44 63/32/44
f 63/32/45 64/31/45 62/30/45 61/29/45
f 61/32/46 62/31/46 58/30/46 57/29/46
f 59/30/47 63/31/47 61/32/47 57/29/47
f 64/31/48 60/30/48 58/29/48 62/32/48
o Cube.008
v -1.000000 7.000000 0.000000
v -1.000000 9.000000 0.000000
v -1.000000 7.000000 -2.000000
v -1.000000 9.000000 -2.000000
v 1.000000 7.000000 0.000000
v 1.000000 9.000000 0.000000
v 1.000000 7.000000 -2.000000
v 1.000000 9.000000 -2.000000
vn -1.0000 -0.0000 -0.0000
vn -0.0000 -0.0000 -1.0000
vn 1.0000 -0.0000 -0.0000
vn -0.0000 -0.0000 1.0000
vn -0.0000 -1.0000 -0.0000
vn -0.0000 1.0000 -0.0000
vt 0.000000 0.000000
vt 0.000000 1.000000
vt 1.000000 1.000000
vt 1.000000 0.000000
s 0
f 65/33/49 66/34/49 68/35/49 67/36/49
f 67/33/50 68/34/50 72/35/50 71/36/50
f 71/36/51 72/35/51 70/34/51 69/33/51
f 69/36/52 70/35/52 66/34/52 65/33/52
f 67/34/53 71/35/53 69/36/53 65/33/53
f 72/35/54 68/34/54 66/33/54 70/36/54
o Cube.009
v -1.000000 7.000000 -2.000000
v -1.000000 9.000000 -2.000000
v -1.000000 7.000000 -4.000000
v -1.000000 9.000000 -4.000000
v 1.000000 7.000000 -2.000000
v 1.000000 9.000000 -2.000000
v 1.000000 7.000000 -4.000000
v 1.000000 9.000000 -4.000000
vn -1.0000 -0.0000 -0.0000
vn -0.0000 -0.0000 -1.0000
vn 1.0000 -0.0000 -0.0000
vn -0.0000 -0.0000 1.0000
vn -0.0000 -1.0000 -0.0000
vn -0.0000 1.0000 -0.0000
vt 0.000000 0.000000
vt 0.000000 1.000000
vt 1.000000 1.000000
vt 1.000000 0.000000
s 0
f 73/37/55 74/38/55 76/39/55 75/40/55
f 75/37/56 76/38/56 80/39/56 79/40/56
f 79/40/57 80/39/57 78/38/57 77/37/57
f 77/40/58 78/39/58 74/38/58 73/37/58
f 75/38/59 79/39/59 77/40/59 73/37/59
f 80/39/60 76/38/60 74/37/60 78/40/60
o Cube.010
v -1.000000 3.000000 -2.000000
v -1.000000 5.000000 -2.000000
v -1.000000 3.000000 -4.000000
v -1.000000 5.000000 -4.000000
v 1.000000 3.000000 -2.000000
v 1.000000 5.000000 -2.000000
v 1.000000 3.000000 -4.000000
v 1.000000 5.000000 -4.000000
vn -1.0000 -0.0000 -0.0000
vn -0.0000 -0.0000 -1.0000
vn 1.0000 -0.0000 -0.0000
vn -0.0000 -0.0000 1.0000
vn -0.0000 -1.0000 -0.0000
vn -0.0000 1.0000 -0.0000
vt 0.000000 0.000000
vt 0.000000 1.000000
vt 1.000000 1.000000
vt 1.000000 0.000000
s 0
f 81/41/61 82/42/61 84/43/61 83/44/61
f 83/41/62 84/42/62 88/43/62 87/44/62
f 87/44/63 88/43/63 86/42/63 85/41/63
f 85/44/64 86/43/64 82/42/64 81/41/64
f 83/42/65 87/43/65 85/44/65 81/41/65
f 88/43/66 84/42/66 82/41/66 86/44/66
o Cube.011
v -1.000000 5.000000 -2.000000
v -1.000000 7.000000 -2.000000
v -1.000000 5.000000 -4.000000
v -1.000000 7.000000 -4.000000
v 1.000000 5.000000 -2.000000
v 1.000000 7.000000 -2.000000
v 1.000000 5.000000 -4.000000
v 1.000000 7.000000 -4.000000
vn -1.0000 -0.0000 -0.0000
vn -0.0000 -0.0000 -1.0000
vn 1.0000 -0.0000 -0.0000
vn -0.0000 -0.0000 1.0000
vn -0.0000 -1.0000 -0.0000
vn -0.0000 1.0000 -0.0000
vt 0.000000 0.000000
vt 0.000000 1.000000
vt 1.000000 1.000000
vt 1.000000 0.000000
s 0
f 89/45/67 90/46/67 92/47/67 91/48/67
f 91/45/68 92/46/68 96/47/68 95/48/68
f 95/48/69 96/47/69 94/46/69 93/45/69
f 93/48/70 94/47/70 90/46/70 89/45/70
f 91/46/71 95/47/71 93/48/71 89/45/71
f 96/47/72 92/46/72 90/45/72 94/48/72
o Cube.012
v -1.000000 1.000000 -2.000000
v -1.000000 3.000000 -2.000000
v -1.000000 1.000000 -4.000000
v -1.000000 3.000000 -4.000000
v 1.000000 1.000000 -2.000000
v 1.000000 3.000000 -2.000000
v 1.000000 1.000000 -4.000000
v 1.000000 3.000000 -4.000000
vn -1.0000 -0.0000 -0.0000
vn -0.0000 -0.0000 -1.0000
vn 1.0000 -0.0000 -0.0000
vn -0.0000 -0.0000 1.0000
vn -0.0000 -1.0000 -0.0000
vn -0.0000 1.0000 -0.0000
vt 0.000000 0.000000
vt 0.000000 1.000000
vt 1.000000 1.000000
vt 1.000000 0.000000
s 0
f 97/49/73 98/50/73 100/51/73 99/52/73
f 99/49/74 100/50/74 104/51/74 103/52/74
f 103/52/75 104/51/75 102/50/75 101/49/75
f 101/52/76 102/51/76 98/50/76 97/49/76
f 99/50/77 103/51/77 101/52/77 97/49/77
f 104/51/78 100/50/78 98/49/78 102/52/78
o Cube.013
v -1.000000 -1.000000 -2.000000
v -1.000000 1.000000 -2.000000
v -1.000000 -1.000000 -4.000000
v -1.000000 1.000000 -4.000000
v 1.000000 -1.000000 -2.000000
v 1.000000 1.000000 -2.000000
v 1.000000 -1.000000 -4.000000
v 1.000000 1.000000 -4.000000
vn -1.0000 -0.0000 -0.0000
vn -0.0000 -0.0000 -1.0000
vn 1.0000 -0.0000 -0.0000
vn -0.0000 -0.0000 1.0000
vn -0.0000 -1.0000 -0.0000
vn -0.0000 1.0000 -0.0000
vt 0.000000 0.000000
vt 0.000000 1.000000
vt 1.000000 1.000000
vt 1.000000 0.000000
s 0
f 105/53/79 106/54/79 108/55/79 107/56/79
f 107/53/80 108/54/80 112/55/80 111/56/80
f 111/56/81 112/55/81 110/54/81 109/53/81
f 109/56/82 110/55/82 106/54/82 105/53/82
f 107/54/83 111/55/83 109/56/83 105/53/83
f 112/55/84 108/54/84 106/53/84 110/56/84
